<svg xmlns="http://www.w3.org/2000/svg" viewBox="0 0 1528 1675" width="1528" height="1675"><defs></defs><g transform="matrix(1,0,0,1,-629.720108773,323.757704248)">
<g>
	<g>
		<path d="M1131.0138030304306,188.36119284444825 C1131.0138030304306,188.36119284444825 948.5039858407155,396.0850285874786 948.5039858407155,396.0850285874786 C948.5039858407155,396.0850285874786 1579.6409787641787,904.7439119159769 1579.7962806865216,904.89921383832 C1579.9515826088646,905.054515760663 1777.5893764765872,686.3092532707035 1777.5893764765872,686.3092532707035" fill="#ffffff" stroke="#000000" stroke-width="2"/>
	</g>
	<g>
		<g transform="matrix(1,0,0,1,433.062467103,-25.611263365)">
			<g transform="matrix(1,0,0,1,0.036607399,0.022325049)">
				<path d="M1340.6237816764133,644.831234068076 C1344.9238305045383,636.9912072126073 1351.8637719107883,629.811214536826 1357.3737816764133,622.581234068076 C1362.8737816764133,615.341243833701 1368.7838158561008,608.6712609235448 1374.3737816764133,601.581234068076 C1379.9637474967258,594.4912072126073 1386.1838402701633,588.051204771201 1391.7037377311008,580.9112511579198 C1397.2337670279758,573.7712365094823 1403.0538353873508,567.101253599326 1408.8537621451633,560.061214536826 C1414.6538109732883,553.0212365094823 1419.9038109732883,546.1212120954198 1425.8737816764133,539.081234068076 C1431.8337426139133,532.0312462751073 1436.5438256217258,525.1512413922948 1442.8737816764133,518.081234068076 C1449.2037377311008,511.01122674385726 1453.1037621451633,504.4512291852635 1459.8737816764133,497.081234068076 C1466.6438012076633,489.7112389508885 1457.0338158561008,481.9312096540135 1450.8737816764133,475.581234068076 C1444.7037377311008,469.2312584821385 1438.2037377311008,462.811214536826 1431.8737816764133,456.581234068076 C1425.5438256217258,450.351253599326 1419.4238305045383,443.53124627510726 1412.7037377311008,437.75121697823226 C1405.9837670279758,431.9712487165135 1399.6438012076633,425.41125115791976 1392.8737816764133,419.581234068076 C1386.1037621451633,413.76122674385726 1379.5137963248508,407.65124139229476 1372.8537621451633,401.601253599326 C1366.1937279654758,395.551204771201 1359.3537621451633,389.65124139229476 1352.3737816764133,384.081234068076 C1345.3938012076633,378.51122674385726 1339.3837914420383,371.62121209541976 1332.3737816764133,366.081234068076 C1325.3537621451633,360.551204771201 1318.7637963248508,354.38122186104476 1311.8537621451633,348.601253599326 C1304.9437279654758,342.821224302451 1297.7637963248508,337.4612389508885 1290.8537621451633,331.601253599326 C1283.9437279654758,325.74120721260726 1276.7738060904758,320.54125604073226 1269.8537621451633,314.601253599326 C1262.9338402701633,308.66125115791976 1254.8437523795383,303.4512291852635 1247.8737816764133,297.581234068076 C1240.8938012076633,291.7112389508885 1234.0238060904758,286.081234068076 1226.8737816764133,280.581234068076 C1219.713808531882,275.081234068076 1213.0238060904758,269.051204771201 1205.8737816764133,263.581234068076 C1198.7237572623508,258.111263364951 1192.1037621451633,251.94121941963851 1184.8537621451633,246.60125359932601 C1177.6037621451633,241.26122674385726 1170.463808531882,235.69121941963851 1163.3737816764133,230.08123406807601 C1156.2837548209445,224.46123895088851 1148.963808531882,219.20122918526351 1141.8737816764133,213.58123406807601 C1134.7837548209445,207.96123895088851 1127.6037621451633,202.47124871651351 1120.3737816764133,197.08123406807601 C1113.1538109732883,191.69121941963851 1106.3137841178195,185.6012230817479 1098.8537621451633,180.6012230817479 C1091.3938012076633,175.6012230817479 1084.6337914420383,169.40124139229476 1077.3237938834445,164.13122186104476 C1070.0037865592258,158.8712426129979 1062.693789000632,153.31124505440414 1055.3237938834445,148.13122186104476 C1047.943789000632,142.96123895088851 1041.0737938834445,136.97124871651351 1033.703798766257,131.7512474958104 C1026.3237938834445,126.54122552315414 1018.5937523795383,121.52123650948226 1011.3237938834445,116.13122186104476 C1004.0537743521945,110.75124749581039 996.3338036490695,105.48122796456039 988.8737816764133,100.58123406807601 C981.413759703757,95.68124017159164 974.2437767936008,89.23122796456039 966.703798766257,84.75124749581039 C959.163759703757,80.27123650948226 951.2937645865695,73.53124627510726 943.8537621451633,69.60122308174789 C936.413759703757,65.67123040596664 928.1137719107883,57.071224302451014 920.8537621451633,54.60122308174789 C913.5937523795383,52.131221861044764 903.3737816764133,39.151241392294764 896.3737816764133,42.581234068076014 C889.3737816764133,46.021236509482264 885.5137963248508,58.92123040596664 878.8737816764133,64.08123406807601 C872.2437767936008,69.25124749581039 868.2237572623508,79.05123528877914 861.8737816764133,85.08123406807601 C855.5238060904758,91.11123284737289 850.5137963248508,99.09124383370101 844.3737816764133,105.58123406807601 C838.2337670279758,112.08123406807601 833.7237572623508,120.00124749581039 827.3737816764133,126.58123406807601 C821.0238060904758,133.17123040596664 816.3938012076633,140.56124505440414 810.3737816764133,147.58123406807601 C804.3637719107883,154.6012230817479 799.1538109732883,161.02123650948226 793.3737816764133,168.58123406807601 C787.5937523795383,176.14123162666976 782.423769469382,181.17123040596664 775.8737816764133,189.08123406807601 C769.3338036490695,197.0012474958104 780.8837914420383,202.90124139229476 786.8737816764133,209.58123406807601 C792.8537621451633,216.26122674385726 800.1538109732883,221.52123650948226 806.3737816764133,228.08123406807601 C812.6037621451633,234.64123162666976 819.413759703757,240.14123162666976 825.8737816764133,246.58123406807601 C832.3237938834445,253.02123650948226 839.5238060904758,258.311214536826 845.8737816764133,264.581234068076 C852.2237572623508,270.851253599326 859.3137841178195,276.50121697823226 865.8737816764133,282.581234068076 C872.433779235007,288.67126092354476 879.1237816764133,294.7112389508885 885.8737816764133,300.581234068076 C892.6337914420383,306.4412194196385 899.6438012076633,312.111263364951 906.3737816764133,318.081234068076 C913.1037621451633,324.051204771201 919.9038109732883,329.9612389508885 926.8737816764133,335.581234068076 C933.8437523795383,341.2112389508885 940.4937767936008,347.29125604073226 947.5437645865695,352.91125115791976 C954.5937523795383,358.54125604073226 961.2537865592258,364.38122186104476 968.3737816764133,370.081234068076 C975.5037865592258,375.78124627510726 982.7437767936008,381.801204771201 989.8737816764133,387.581234068076 C997.0137963248508,393.351253599326 1003.7237572623508,399.12121209541976 1010.8737816764133,404.581234068076 C1018.0337548209445,410.03124627510726 1024.713808531882,416.1812096540135 1031.923769469382,421.53124627510726 C1039.1438012076633,426.87121209541976 1045.8338036490695,432.9512291852635 1052.923769469382,438.53124627510726 C1060.0238060904758,444.111263364951 1067.3437523795383,449.40124139229476 1074.3938012076633,455.061214536826 C1081.443789000632,460.7212487165135 1088.7237572623508,466.12121209541976 1095.923769469382,471.53124627510726 C1103.1337914420383,476.9412194196385 1110.463808531882,482.25121697823226 1117.5437645865695,487.91125115791976 C1124.6137719107883,493.571224302451 1131.7537865592258,498.9712487165135 1138.923769469382,504.53124627510726 C1146.1037621451633,510.091243833701 1153.693789000632,515.061214536826 1160.8737816764133,520.581234068076 C1168.0537743521945,526.101253599326 1175.1237816764133,531.7412072126073 1182.5437645865695,536.9112511579198 C1189.953798766257,542.081234068076 1197.2837548209445,547.3812218610448 1204.5437645865695,552.9112511579198 C1211.7937645865695,558.4412194196385 1219.6137719107883,563.0312462751073 1226.8737816764133,568.581234068076 C1234.1438012076633,574.1212120954198 1241.6237816764133,579.0212365094823 1248.8737816764133,584.581234068076 C1256.1337914420383,590.1312218610448 1263.9238305045383,594.851253599326 1271.3737816764133,600.081234068076 C1278.8337426139133,605.301204771201 1286.2137474967258,610.7312584821385 1293.9238305045383,615.5312462751073 C1301.6438012076633,620.331234068076 1308.7337670279758,626.1612511579198 1316.5438256217258,630.9112511579198 C1324.3537621451633,635.6712609235448 1331.9338402701633,642.1412316266698 1340.6237816764133,644.831234068076 C1340.6237816764133,644.831234068076 1340.6237816764133,644.831234068076 1340.6237816764133,644.831234068076 Z" fill="#eec10f"/>
			</g>
			<g transform="matrix(1,0,0,1,0.036607399,0.022325049)">
				<g>
					<path d="M1554.6237816764133,376.831234068076 C1574.4937767936008,348.12121209541976 1594.0937523795383,324.13122186104476 1615.3237328482883,295.53124627510726 C1636.5538353873508,266.92126092354476 1653.6738305045383,241.66125115791976 1668.6538109732883,207.8612328473729 C1683.6237816764133,174.05123528877914 1692.6438012076633,132.6212426129979 1695.6237816764133,93.83123406807601 C1698.6137719107883,55.05123528877914 1692.2337670279758,5.311245054404139 1680.5538353873508,-30.098758607705236 C1668.8637719107883,-65.49876776297867 1653.8938012076633,-93.65877142508805 1632.5438256217258,-123.0887641008693 C1611.1937279654758,-152.5087622698146 1591.4537377311008,-171.72876349051774 1562.8737816764133,-194.41876593192399 C1534.2938256217258,-217.10876837333024 1508.0737328482883,-232.5687674578029 1473.3137230826633,-246.85876455863297 C1438.5637230826633,-261.1587676103908 1394.3137230826633,-268.52876654227555 1354.6237816764133,-269.168765931924 C1314.9338402701633,-269.8087653215724 1267.1237816764133,-262.71876516898453 1231.6937279654758,-251.09876623709977 C1196.2738060904758,-239.478767305215 1165.203798766257,-226.2187689836818 1135.8737816764133,-205.91876593192399 C1106.5337548209445,-185.62876501639664 1085.463808531882,-165.3387641008693 1060.8737816764133,-139.91876593192399 C1036.2837548209445,-114.50876226981461 1014.6438012076633,-93.76877203543961 992.6237816764133,-67.16876593192399 C1095.8737816764133,-8.51877203543961 1192.0537743521945,69.03124627510726 1285.9238305045383,142.53124627510726 C1379.8038353873508,216.02123650948226 1471.2838158561008,289.38122186104476 1554.6237816764133,376.831234068076 C1554.6237816764133,376.831234068076 1554.6237816764133,376.831234068076 1554.6237816764133,376.831234068076 Z" fill="#eec10f"/>
				</g>
			</g>
			<g transform="matrix(1,0,0,1,0.036607399,0.022325049)">
				<g>
					<path d="M196.62378167641327,995.831234068076 C196.62378167641327,995.831234068076 196.62378167641327,1030.831234068076 196.62378167641327,1030.831234068076 C201.09378146660492,1206.9812584821384 354.90378045571015,1362.771175474326 528.6237816764133,1376.831234068076 C528.6237816764133,1376.831234068076 603.6237816764133,1376.831234068076 603.6237816764133,1376.831234068076 C615.5637841178195,1375.321224302451 629.6037926627414,1372.771175474326 641.6437706900851,1370.851253599326 C653.683779235007,1368.9412194196384 665.2637963248508,1364.871273130576 676.6437706900851,1361.861263364951 C688.0337853385226,1358.841243833701 698.2137780143039,1354.271175474326 708.8537621451633,1350.061214536826 C719.4937767936008,1345.851253599326 730.3737816764133,1341.841243833701 740.3237938834445,1336.531185239951 C750.2637963248508,1331.2112389508884 759.2237572623508,1326.541195005576 768.3737816764133,1320.581234068076 C777.5137963248508,1314.611263364951 786.8637719107883,1310.1611901227634 795.3237938834445,1303.531185239951 C803.7738060904758,1296.891292661826 812.2637963248508,1291.4912682477634 820.3737816764133,1284.581234068076 C828.4737572623508,1277.6711998883884 836.683779235007,1271.0012780133884 844.3737816764133,1263.581234068076 C852.0637841178195,1256.1611901227634 859.463808531882,1249.111263364951 866.7237572623508,1241.9312096540134 C873.9837670279758,1234.7512780133884 881.0637841178195,1226.4712487165134 888.3737816764133,1219.581234068076 C895.673769469382,1212.6912194196384 901.2537865592258,1203.311214536826 908.8737816764133,1196.081234068076 C916.4837670279758,1188.851253599326 922.8137841178195,1179.811214536826 929.8737816764133,1172.081234068076 C936.933779235007,1164.351253599326 943.2637963248508,1156.1511803571384 949.923769469382,1148.131282896201 C956.5937523795383,1140.111263364951 963.6337914420383,1132.4211998883884 969.8737816764133,1124.081234068076 C976.1137719107883,1115.7412682477634 983.8637719107883,1107.791195005576 990.3737816764133,1099.581234068076 C996.8837914420383,1091.381282896201 1002.9038109732883,1082.9912682477634 1009.8737816764133,1075.081234068076 C1016.8338036490695,1067.1711998883884 1022.413759703757,1058.5112877790134 1029.3938012076633,1050.601253599326 C1036.3737816764133,1042.6912194196384 1041.8737816764133,1034.0012780133884 1048.923769469382,1026.131282896201 C1055.9837670279758,1018.271175474326 1061.683779235007,1008.811214536826 1068.923769469382,1001.131282896201 C1076.173769469382,993.4612389508885 1080.453798766257,983.6812096540135 1088.3938012076633,976.601253599326 C1096.3338036490695,969.521175474326 1109.5737938834445,982.091243833701 1119.8437523795383,983.611263364951 C1130.1237816764133,985.121273130576 1147.0037865592258,990.091243833701 1158.6237816764133,988.831234068076 C1170.2437767936008,987.571224302451 1183.8537621451633,984.551204771201 1193.703798766257,978.9111901227635 C1203.5437645865695,973.271175474326 1211.2437767936008,967.771175474326 1217.8737816764133,959.081234068076 C1224.5037865592258,950.381282896201 1231.3938012076633,943.2612877790135 1237.5438256217258,934.7512780133885 C1243.6838402701633,926.2412682477635 1250.7838158561008,919.0012780133885 1257.3737816764133,910.581234068076 C1263.9637474967258,902.1611901227635 1270.7838158561008,893.9412194196385 1277.5438256217258,885.7512780133885 C1284.2938256217258,877.561214536826 1290.5037865592258,869.621273130576 1297.3737816764133,861.581234068076 C1304.2437767936008,853.541195005576 1310.0137963248508,845.2012291852635 1316.8737816764133,837.081234068076 C1323.7337670279758,828.9712487165135 1330.4537377311008,820.781185239951 1337.3737816764133,812.581234068076 C1344.2938256217258,804.391292661826 1350.0837426139133,796.611263364951 1356.8737816764133,788.081234068076 C1363.6738305045383,779.561214536826 1370.2337670279758,773.131282896201 1376.3737816764133,763.581234068076 C1382.5238060904758,754.041195005576 1386.3237328482883,743.4211998883885 1388.4038109732883,731.611263364951 C1390.4837670279758,719.7912560407323 1386.8237328482883,702.851253599326 1383.3137230826633,692.1412316266698 C1379.8137230826633,681.4212609235448 1372.0538353873508,674.351253599326 1365.3737816764133,666.081234068076 C1358.6937279654758,657.811214536826 1374.7838158561008,649.4812584821385 1379.3737816764133,641.581234068076 C1383.9637474967258,633.6912194196385 1393.0837426139133,625.091243833701 1398.8737816764133,617.081234068076 C1404.6738305045383,609.081234068076 1413.4238305045383,600.841243833701 1419.3938012076633,592.601253599326 C1425.3637719107883,584.361263364951 1432.8938012076633,576.6412316266698 1439.3737816764133,568.581234068076 C1445.8637719107883,560.5212365094823 1452.1838402701633,552.111263364951 1458.9238305045383,544.1312218610448 C1465.6738305045383,536.1612511579198 1472.1137719107883,528.1212120954198 1478.8737816764133,520.081234068076 C1485.6337914420383,512.0412560407323 1491.9937767936008,503.091243833701 1498.8737816764133,495.081234068076 C1505.7437767936008,487.061214536826 1511.6937279654758,478.7212487165135 1518.3938012076633,470.601253599326 C1525.0937523795383,462.4812584821385 1531.5037865592258,454.4512291852635 1537.8737816764133,446.081234068076 C1544.2537865592258,437.7212487165135 1551.2037377311008,429.111263364951 1557.3938012076633,420.601253599326 C1563.5837426139133,412.091243833701 1570.1237816764133,404.03124627510726 1576.3737816764133,395.581234068076 C1582.6337914420383,387.13122186104476 1588.8237328482883,378.89123162666976 1595.3737816764133,370.581234068076 C1601.9238305045383,362.28124627510726 1607.4338402701633,353.53124627510726 1613.9238305045383,345.13122186104476 C1620.4238305045383,336.74120721260726 1627.3637719107883,328.321224302451 1633.3938012076633,319.601253599326 C1639.4238305045383,310.88122186104476 1645.8137230826633,303.081234068076 1652.3737816764133,294.581234068076 C1658.9437279654758,286.081234068076 1663.9338402701633,277.2112389508885 1669.8737816764133,268.081234068076 C1675.8237328482883,258.9612389508885 1680.5438256217258,249.80120477120101 1685.5438256217258,239.75121697823226 C1690.5538353873508,229.71123895088851 1695.0137963248508,219.35125359932601 1699.5438256217258,208.7512474958104 C1704.0837426139133,198.16122064034164 1707.2637963248508,187.2512474958104 1710.6037621451633,175.81124505440414 C1713.9338402701633,164.3612328473729 1717.1937279654758,152.4812279645604 1718.9537377311008,140.16122064034164 C1720.7137474967258,127.84124383370101 1723.5538353873508,113.13122186104476 1724.6237816764133,100.83123406807601 C1724.6237816764133,100.83123406807601 1724.6237816764133,47.831234068076014 1724.6237816764133,47.831234068076014 C1715.9238305045383,-133.42876043875992 1550.2838158561008,-292.418765931924 1369.6237816764133,-298.168765931924 C1369.6237816764133,-298.168765931924 1327.6237816764133,-298.168765931924 1327.6237816764133,-298.168765931924 C1281.7437767936008,-295.28876581748307 1225.8437523795383,-282.49876585563004 1184.703798766257,-265.0887641008693 C1143.5537743521945,-247.68876638968766 1110.0937523795383,-226.0887641008693 1077.8737816764133,-196.91876593192399 C1045.6438012076633,-167.7587622698146 1019.683779235007,-140.53876104911149 990.3737816764133,-109.41876593192399 C961.0737938834445,-78.29877081473649 935.6538109732883,-48.37877264579117 908.3737816764133,-16.418765931923986 C881.1037621451633,15.54122552315414 855.193789000632,46.631221861044764 828.5437645865695,78.75124749581039 C801.8938012076633,110.86123284737289 775.8137841178195,143.01122674385726 750.6237816764133,175.83123406807601 C715.6337914420383,145.52123650948226 660.3237938834445,156.9812279645604 634.3737816764133,191.58123406807601 C608.423769469382,226.18120965401351 584.673769469382,250.57122430245101 558.8737816764133,284.081234068076 C533.0737938834445,317.591243833701 510.40378045571015,342.9812584821385 483.39377069008515,376.601253599326 C456.3837914420383,410.2212487165135 462.8837914420383,468.03124627510726 493.6237816764133,498.831234068076 C430.1737847281711,572.7912560407323 377.0937828971164,641.9812584821385 317.8737816764133,720.081234068076 C258.64378213417694,798.1812096540135 196.1437816871421,892.9712487165135 196.62378167641327,995.831234068076M1554.6237816764133,376.831234068076 C1471.2838158561008,289.38122186104476 1379.8038353873508,216.02123650948226 1285.9238305045383,142.53124627510726 C1192.0537743521945,69.03124627510726 1095.8737816764133,-8.51877203543961 992.6237816764133,-67.16876593192399 C1014.6438012076633,-93.76877203543961 1036.2837548209445,-114.50876226981461 1060.8737816764133,-139.91876593192399 C1085.463808531882,-165.3387641008693 1106.5337548209445,-185.62876501639664 1135.8737816764133,-205.91876593192399 C1165.203798766257,-226.2187689836818 1196.2738060904758,-239.478767305215 1231.6937279654758,-251.09876623709977 C1267.1237816764133,-262.71876516898453 1314.9338402701633,-269.8087653215724 1354.6237816764133,-269.168765931924 C1394.3137230826633,-268.52876654227555 1438.5637230826633,-261.1587676103908 1473.3137230826633,-246.85876455863297 C1508.0737328482883,-232.5687674578029 1534.2938256217258,-217.10876837333024 1562.8737816764133,-194.41876593192399 C1591.4537377311008,-171.72876349051774 1611.1937279654758,-152.5087622698146 1632.5438256217258,-123.0887641008693 C1653.8938012076633,-93.65877142508805 1668.8637719107883,-65.49876776297867 1680.5538353873508,-30.098758607705236 C1692.2337670279758,5.311245054404139 1698.6137719107883,55.05123528877914 1695.6237816764133,93.83123406807601 C1692.6438012076633,132.6212426129979 1683.6237816764133,174.05123528877914 1668.6538109732883,207.8612328473729 C1653.6738305045383,241.66125115791976 1636.5538353873508,266.92126092354476 1615.3237328482883,295.53124627510726 C1594.0937523795383,324.13122186104476 1574.4937767936008,348.12121209541976 1554.6237816764133,376.831234068076M1340.6237816764133,644.831234068076 C1331.9338402701633,642.1412316266698 1324.3537621451633,635.6712609235448 1316.5438256217258,630.9112511579198 C1308.7337670279758,626.1612511579198 1301.6438012076633,620.331234068076 1293.9238305045383,615.5312462751073 C1286.2137474967258,610.7312584821385 1278.8337426139133,605.301204771201 1271.3737816764133,600.081234068076 C1263.9238305045383,594.851253599326 1256.1337914420383,590.1312218610448 1248.8737816764133,584.581234068076 C1241.6237816764133,579.0212365094823 1234.1438012076633,574.1212120954198 1226.8737816764133,568.581234068076 C1219.6137719107883,563.0312462751073 1211.7937645865695,558.4412194196385 1204.5437645865695,552.9112511579198 C1197.2837548209445,547.3812218610448 1189.953798766257,542.081234068076 1182.5437645865695,536.9112511579198 C1175.1237816764133,531.7412072126073 1168.0537743521945,526.101253599326 1160.8737816764133,520.581234068076 C1153.693789000632,515.061214536826 1146.1037621451633,510.091243833701 1138.923769469382,504.53124627510726 C1131.7537865592258,498.9712487165135 1124.6137719107883,493.571224302451 1117.5437645865695,487.91125115791976 C1110.463808531882,482.25121697823226 1103.1337914420383,476.9412194196385 1095.923769469382,471.53124627510726 C1088.7237572623508,466.12121209541976 1081.443789000632,460.7212487165135 1074.3938012076633,455.061214536826 C1067.3437523795383,449.40124139229476 1060.0238060904758,444.111263364951 1052.923769469382,438.53124627510726 C1045.8338036490695,432.9512291852635 1039.1438012076633,426.87121209541976 1031.923769469382,421.53124627510726 C1024.713808531882,416.1812096540135 1018.0337548209445,410.03124627510726 1010.8737816764133,404.581234068076 C1003.7237572623508,399.12121209541976 997.0137963248508,393.351253599326 989.8737816764133,387.581234068076 C982.7437767936008,381.801204771201 975.5037865592258,375.78124627510726 968.3737816764133,370.081234068076 C961.2537865592258,364.38122186104476 954.5937523795383,358.54125604073226 947.5437645865695,352.91125115791976 C940.4937767936008,347.29125604073226 933.8437523795383,341.2112389508885 926.8737816764133,335.581234068076 C919.9038109732883,329.9612389508885 913.1037621451633,324.051204771201 906.3737816764133,318.081234068076 C899.6438012076633,312.111263364951 892.6337914420383,306.4412194196385 885.8737816764133,300.581234068076 C879.1237816764133,294.7112389508885 872.433779235007,288.67126092354476 865.8737816764133,282.581234068076 C859.3137841178195,276.50121697823226 852.2237572623508,270.851253599326 845.8737816764133,264.581234068076 C839.5238060904758,258.311214536826 832.3237938834445,253.02123650948226 825.8737816764133,246.58123406807601 C819.413759703757,240.14123162666976 812.6037621451633,234.64123162666976 806.3737816764133,228.08123406807601 C800.1538109732883,221.52123650948226 792.8537621451633,216.26122674385726 786.8737816764133,209.58123406807601 C780.8837914420383,202.90124139229476 769.3338036490695,197.0012474958104 775.8737816764133,189.08123406807601 C782.423769469382,181.17123040596664 787.5937523795383,176.14123162666976 793.3737816764133,168.58123406807601 C799.1538109732883,161.02123650948226 804.3637719107883,154.6012230817479 810.3737816764133,147.58123406807601 C816.3938012076633,140.56124505440414 821.0238060904758,133.17123040596664 827.3737816764133,126.58123406807601 C833.7237572623508,120.00124749581039 838.2337670279758,112.08123406807601 844.3737816764133,105.58123406807601 C850.5137963248508,99.09124383370101 855.5238060904758,91.11123284737289 861.8737816764133,85.08123406807601 C868.2237572623508,79.05123528877914 872.2437767936008,69.25124749581039 878.8737816764133,64.08123406807601 C885.5137963248508,58.92123040596664 889.3737816764133,46.021236509482264 896.3737816764133,42.581234068076014 C903.3737816764133,39.151241392294764 913.5937523795383,52.131221861044764 920.8537621451633,54.60122308174789 C928.1137719107883,57.071224302451014 936.413759703757,65.67123040596664 943.8537621451633,69.60122308174789 C951.2937645865695,73.53124627510726 959.163759703757,80.27123650948226 966.703798766257,84.75124749581039 C974.2437767936008,89.23122796456039 981.413759703757,95.68124017159164 988.8737816764133,100.58123406807601 C996.3338036490695,105.48122796456039 1004.0537743521945,110.75124749581039 1011.3237938834445,116.13122186104476 C1018.5937523795383,121.52123650948226 1026.3237938834445,126.54122552315414 1033.703798766257,131.7512474958104 C1041.0737938834445,136.97124871651351 1047.943789000632,142.96123895088851 1055.3237938834445,148.13122186104476 C1062.693789000632,153.31124505440414 1070.0037865592258,158.8712426129979 1077.3237938834445,164.13122186104476 C1084.6337914420383,169.40124139229476 1091.3938012076633,175.6012230817479 1098.8537621451633,180.6012230817479 C1106.3137841178195,185.6012230817479 1113.1538109732883,191.69121941963851 1120.3737816764133,197.08123406807601 C1127.6037621451633,202.47124871651351 1134.7837548209445,207.96123895088851 1141.8737816764133,213.58123406807601 C1148.963808531882,219.20122918526351 1156.2837548209445,224.46123895088851 1163.3737816764133,230.08123406807601 C1170.463808531882,235.69121941963851 1177.6037621451633,241.26122674385726 1184.8537621451633,246.60125359932601 C1192.1037621451633,251.94121941963851 1198.7237572623508,258.111263364951 1205.8737816764133,263.581234068076 C1213.0238060904758,269.051204771201 1219.713808531882,275.081234068076 1226.8737816764133,280.581234068076 C1234.0238060904758,286.081234068076 1240.8938012076633,291.7112389508885 1247.8737816764133,297.581234068076 C1254.8437523795383,303.4512291852635 1262.9338402701633,308.66125115791976 1269.8537621451633,314.601253599326 C1276.7738060904758,320.54125604073226 1283.9437279654758,325.74120721260726 1290.8537621451633,331.601253599326 C1297.7637963248508,337.4612389508885 1304.9437279654758,342.821224302451 1311.8537621451633,348.601253599326 C1318.7637963248508,354.38122186104476 1325.3537621451633,360.551204771201 1332.3737816764133,366.081234068076 C1339.3837914420383,371.62121209541976 1345.3938012076633,378.51122674385726 1352.3737816764133,384.081234068076 C1359.3537621451633,389.65124139229476 1366.1937279654758,395.551204771201 1372.8537621451633,401.601253599326 C1379.5137963248508,407.65124139229476 1386.1037621451633,413.76122674385726 1392.8737816764133,419.581234068076 C1399.6438012076633,425.41125115791976 1405.9837670279758,431.9712487165135 1412.7037377311008,437.75121697823226 C1419.4238305045383,443.53124627510726 1425.5438256217258,450.351253599326 1431.8737816764133,456.581234068076 C1438.2037377311008,462.811214536826 1444.7037377311008,469.2312584821385 1450.8737816764133,475.581234068076 C1457.0338158561008,481.9312096540135 1466.6438012076633,489.7112389508885 1459.8737816764133,497.081234068076 C1453.1037621451633,504.4512291852635 1449.2037377311008,511.01122674385726 1442.8737816764133,518.081234068076 C1436.5438256217258,525.1512413922948 1431.8337426139133,532.0312462751073 1425.8737816764133,539.081234068076 C1419.9038109732883,546.1212120954198 1414.6538109732883,553.0212365094823 1408.8537621451633,560.061214536826 C1403.0538353873508,567.101253599326 1397.2337670279758,573.7712365094823 1391.7037377311008,580.9112511579198 C1386.1838402701633,588.051204771201 1379.9637474967258,594.4912072126073 1374.3737816764133,601.581234068076 C1368.7838158561008,608.6712609235448 1362.8737816764133,615.341243833701 1357.3737816764133,622.581234068076 C1351.8637719107883,629.811214536826 1344.9238305045383,636.9912072126073 1340.6237816764133,644.831234068076M706.6237816764133,186.83123406807601 C734.7337670279758,190.8512230817479 751.5037865592258,219.93120965401351 772.3737816764133,238.08123406807601 C793.2537865592258,256.2312584821385 811.7637963248508,277.64123162666976 832.3237938834445,295.13122186104476 C852.8837914420383,312.62121209541976 873.2437767936008,332.7012291852635 894.3737816764133,350.081234068076 C915.5037865592258,367.4612389508885 936.413759703757,386.13122186104476 957.8737816764133,403.581234068076 C979.3237938834445,421.04125604073226 1001.3737816764133,438.38122186104476 1022.8537621451633,455.601253599326 C1044.3338036490695,472.821224302451 1066.8837914420383,489.611263364951 1088.8737816764133,506.581234068076 C1110.8537621451633,523.551204771201 1133.8137841178195,540.7012291852635 1156.3737816764133,557.081234068076 C1178.923769469382,573.4712487165135 1201.173769469382,590.2212487165135 1223.8737816764133,606.581234068076 C1246.5737328482883,622.9412194196385 1271.2938256217258,636.831234068076 1293.8737816764133,653.581234068076 C1316.4437279654758,670.341243833701 1347.3437523795383,676.7212487165135 1358.3938012076633,706.061214536826 C1369.4437279654758,735.4011803571385 1340.2237572623508,762.1812096540135 1323.3237328482883,783.531185239951 C1306.4238305045383,804.881282896201 1287.7237572623508,826.361263364951 1270.8537621451633,848.061214536826 C1253.9837670279758,869.7612877790135 1234.3237328482883,890.071224302451 1218.3237938834445,912.531185239951 C1202.3237938834445,934.9912682477635 1178.4737572623508,964.9612389508885 1147.6237816764133,959.831234068076 C1116.7738060904758,954.7012291852635 1090.1037621451633,940.6912194196385 1063.8737816764133,926.581234068076 C1037.6538109732883,912.4612389508885 1014.693789000632,898.6511803571385 990.3938012076633,883.061214536826 C966.0937523795383,867.4712487165135 943.3338036490695,852.821224302451 920.3938012076633,836.061214536826 C897.453798766257,819.301204771201 875.0337548209445,803.7212487165135 852.5437645865695,786.9111901227635 C830.0537743521945,770.111263364951 808.8938012076633,752.7512780133885 786.8737816764133,735.581234068076 C764.8537621451633,718.4112511579198 743.7637963248508,701.2312584821385 722.5437645865695,682.9112511579198 C701.3237938834445,664.591243833701 680.2737755728976,647.2812462751073 659.3737816764133,628.081234068076 C638.4837670279758,608.8712120954198 619.2637963248508,591.611263364951 599.3737816764133,571.081234068076 C579.4837670279758,550.5412560407323 560.8537926627414,533.361263364951 542.3737816764133,511.081234068076 C523.8937706900851,488.79125604073226 503.52377557289765,470.00121697823226 495.64377069008515,440.811214536826 C487.77377557289765,411.62121209541976 513.4637780143039,384.74120721260726 531.3737816764133,363.581234068076 C549.2837853385226,342.42126092354476 565.9637780143039,320.851253599326 583.8737816764133,299.081234068076 C601.7837853385226,277.311214536826 618.1137719107883,257.101253599326 636.3737816764133,234.58123406807601 C654.6437706900851,212.06124505440414 672.3137841178195,181.93124017159164 706.6237816764133,186.83123406807601M513.6237816764133,521.831234068076 C591.5637841178195,609.9912072126073 677.8237938834445,686.861263364951 769.8737816764133,759.581234068076 C861.923769469382,832.311214536826 961.5437645865695,905.1611901227635 1064.6237816764133,959.831234068076 C1057.8938012076633,969.1511803571385 1050.3137841178195,977.361263364951 1043.3737816764133,986.581234068076 C1036.433779235007,995.801204771201 1028.5437645865695,1004.581234068076 1021.703798766257,1013.9111901227635 C1014.8637719107883,1023.2412682477635 1006.7937645865695,1030.6511803571384 999.8737816764133,1040.081234068076 C992.943789000632,1049.5112877790134 985.2738060904758,1057.541195005576 977.8737816764133,1067.081234068076 C970.463808531882,1076.621273130576 963.5137963248508,1083.881282896201 955.8737816764133,1094.081234068076 C948.2337670279758,1104.271175474326 933.9937767936008,1096.861263364951 922.4038109732883,1093.051204771201 C910.8037743521945,1089.2512780133884 898.1438012076633,1084.311214536826 886.943789000632,1079.5112877790134 C875.7437767936008,1074.7112389508884 865.1037621451633,1069.7612877790134 854.3938012076633,1064.061214536826 C843.683779235007,1058.351253599326 832.3537621451633,1053.381282896201 821.933779235007,1047.521175474326 C811.5137963248508,1041.6711998883884 801.1438012076633,1035.301204771201 790.8837914420383,1029.571224302451 C780.6237816764133,1023.841243833701 771.3237938834445,1017.2412682477635 761.3938012076633,1011.061214536826 C751.4737572623508,1004.881282896201 741.5737938834445,998.061214536826 731.8737816764133,991.581234068076 C722.183779235007,985.091243833701 713.0037865592258,978.591243833701 703.3937706900851,972.061214536826 C693.7837853385226,965.531185239951 684.8537926627414,957.7612877790135 675.3737816764133,951.081234068076 C665.8937706900851,944.4011803571385 656.6237816764133,937.031185239951 647.3737816764133,930.081234068076 C638.1337914420383,923.121273130576 629.4037804557101,916.301204771201 620.3737816764133,909.081234068076 C611.3437828971164,901.861263364951 602.2537865592258,894.541195005576 593.3737816764133,887.081234068076 C584.5037865592258,879.621273130576 575.183779235007,872.591243833701 566.5437951041476,864.9111901227635 C557.8937706900851,857.2312584821385 549.7437767936008,850.1511803571385 541.3737816764133,842.081234068076 C533.0137963248508,834.0112877790135 524.0137963248508,826.381282896201 515.8737816764133,818.581234068076 C507.7337670279758,810.781185239951 500.0137963248508,802.551204771201 491.8737816764133,794.581234068076 C483.7337670279758,786.611263364951 476.3837914420383,777.641292661826 468.3737816764133,769.081234068076 C460.3737816764133,760.5112877790135 453.02377557289765,751.821224302451 445.70378350746796,742.7512780133885 C438.3837761832492,733.6711998883885 431.8937859488742,725.081234068076 424.8737816764133,715.581234068076 C417.8437828971164,706.091243833701 412.7237877799289,695.601253599326 405.85377740395234,685.601253599326 C398.98378228676484,675.601253599326 393.5037865592258,664.301204771201 403.3737816764133,655.581234068076 C413.2537865592258,646.8712120954198 416.5037865592258,636.9712487165135 424.9237847281711,628.1312218610448 C433.3437828971164,619.2912560407323 439.0137810660617,609.811214536826 446.9237847281711,601.1312218610448 C454.8337731314914,592.4612389508885 460.53378533852265,583.4912072126073 468.39377069008515,574.601253599326 C476.2537865592258,565.7112389508885 482.64377069008515,556.1612511579198 490.3737816764133,547.581234068076 C498.1137719107883,539.0112267438573 504.3737816764133,528.2812462751073 513.6237816764133,521.831234068076M311.6237816764133,779.831234068076 C365.8137841178195,882.1611901227635 457.78378533852265,957.4312096540135 548.8737816764133,1029.581234068076 C639.9537682486789,1101.7412682477634 743.193789000632,1175.381282896201 853.6237816764133,1211.831234068076 C830.2337670279758,1238.4912682477634 808.1137719107883,1258.591243833701 778.8737816764133,1279.081234068076 C749.6337914420383,1299.581234068076 720.693789000632,1314.881282896201 685.933779235007,1328.141292661826 C651.1637902213351,1341.391292661826 604.1037926627414,1349.371273130576 564.6237816764133,1348.831234068076 C525.1437706900851,1348.291195005576 479.40378045571015,1341.031185239951 444.60377740395234,1326.861263364951 C409.7937798453586,1312.6812096540134 382.07377862465546,1297.9111901227634 353.3737816764133,1275.081234068076 C324.683779235007,1252.2412682477634 305.4937844229953,1231.521175474326 284.70378350746796,1201.7512780133884 C263.9137825919406,1171.9812584821384 249.81378030312226,1141.391292661826 238.8437828971164,1105.611263364951 C227.8837819052951,1069.831234068076 223.5637822104709,1019.4412194196385 227.61378144753144,980.821224302451 C231.66378259194062,942.2012291852635 241.15378045571015,902.1711998883885 256.9337830497043,868.141292661826 C272.70378350746796,834.101253599326 289.2937798453586,808.891292661826 311.6237816764133,779.831234068076 C311.6237816764133,779.831234068076 311.6237816764133,779.831234068076 311.6237816764133,779.831234068076 Z" fill="#000002"/>
				</g>
			</g>
		</g>
		<g transform="matrix(1,0,0,1,433.062467103,-25.611263365)">
			<g>
				<path d="M706.6237816764133,186.83123406807601 C672.3137841178195,181.93124017159164 654.6437706900851,212.06124505440414 636.3737816764133,234.58123406807601 C618.1137719107883,257.101253599326 601.7837853385226,277.311214536826 583.8737816764133,299.081234068076 C565.9637780143039,320.851253599326 549.2837853385226,342.42126092354476 531.3737816764133,363.581234068076 C513.4637780143039,384.74120721260726 487.77377557289765,411.62121209541976 495.64377069008515,440.811214536826 C503.52377557289765,470.00121697823226 523.8937706900851,488.79125604073226 542.3737816764133,511.081234068076 C560.8537926627414,533.361263364951 579.4837670279758,550.5412560407323 599.3737816764133,571.081234068076 C619.2637963248508,591.611263364951 638.4837670279758,608.8712120954198 659.3737816764133,628.081234068076 C680.2737755728976,647.2812462751073 701.3237938834445,664.591243833701 722.5437645865695,682.9112511579198 C743.7637963248508,701.2312584821385 764.8537621451633,718.4112511579198 786.8737816764133,735.581234068076 C808.8938012076633,752.7512780133885 830.0537743521945,770.111263364951 852.5437645865695,786.9111901227635 C875.0337548209445,803.7212487165135 897.453798766257,819.301204771201 920.3938012076633,836.061214536826 C943.3338036490695,852.821224302451 966.0937523795383,867.4712487165135 990.3938012076633,883.061214536826 C1014.693789000632,898.6511803571385 1037.6538109732883,912.4612389508885 1063.8737816764133,926.581234068076 C1090.1037621451633,940.6912194196385 1116.7738060904758,954.7012291852635 1147.6237816764133,959.831234068076 C1178.4737572623508,964.9612389508885 1202.3237938834445,934.9912682477635 1218.3237938834445,912.531185239951 C1234.3237328482883,890.071224302451 1253.9837670279758,869.7612877790135 1270.8537621451633,848.061214536826 C1287.7237572623508,826.361263364951 1306.4238305045383,804.881282896201 1323.3237328482883,783.531185239951 C1340.2237572623508,762.1812096540135 1369.4437279654758,735.4011803571385 1358.3938012076633,706.061214536826 C1347.3437523795383,676.7212487165135 1316.4437279654758,670.341243833701 1293.8737816764133,653.581234068076 C1271.2938256217258,636.831234068076 1246.5737328482883,622.9412194196385 1223.8737816764133,606.581234068076 C1201.173769469382,590.2212487165135 1178.923769469382,573.4712487165135 1156.3737816764133,557.081234068076 C1133.8137841178195,540.7012291852635 1110.8537621451633,523.551204771201 1088.8737816764133,506.581234068076 C1066.8837914420383,489.611263364951 1044.3338036490695,472.821224302451 1022.8537621451633,455.601253599326 C1001.3737816764133,438.38122186104476 979.3237938834445,421.04125604073226 957.8737816764133,403.581234068076 C936.413759703757,386.13122186104476 915.5037865592258,367.4612389508885 894.3737816764133,350.081234068076 C873.2437767936008,332.7012291852635 852.8837914420383,312.62121209541976 832.3237938834445,295.13122186104476 C811.7637963248508,277.64123162666976 793.2537865592258,256.2312584821385 772.3737816764133,238.08123406807601 C751.5037865592258,219.93120965401351 734.7337670279758,190.8512230817479 706.6237816764133,186.83123406807601M682.6237816764133,242.83123406807601 C695.0837731314914,245.92126092354476 701.7837853385226,264.2312584821385 712.3737816764133,272.081234068076 C722.9737572623508,279.92126092354476 731.6438012076633,292.50121697823226 741.8737816764133,301.581234068076 C752.1037621451633,310.67126092354476 762.4837670279758,321.40124139229476 772.8737816764133,330.581234068076 C783.2637963248508,339.77123650948226 793.5537743521945,349.081234068076 803.8737816764133,358.581234068076 C814.193789000632,368.091243833701 824.913759703757,377.9712487165135 835.8537621451633,386.601253599326 C846.7937645865695,395.2312584821385 856.3637719107883,405.4712487165135 867.3737816764133,414.081234068076 C878.3837914420383,422.6912194196385 889.2237572623508,432.301204771201 899.8737816764133,441.581234068076 C910.5238060904758,450.861263364951 921.6237816764133,458.87121209541976 932.3737816764133,468.081234068076 C943.1137719107883,477.301204771201 954.7637963248508,485.87121209541976 965.8537621451633,494.601253599326 C976.943789000632,503.331234068076 987.3437523795383,512.4912072126073 998.703798766257,520.7512169782323 C1010.0637841178195,529.0112267438573 1020.4737572623508,538.301204771201 1031.8737816764133,546.581234068076 C1043.2738060904758,554.8712120954198 1054.423769469382,564.2112389508885 1065.8737816764133,572.581234068076 C1077.3137841178195,580.9612389508885 1088.2637963248508,589.2512169782323 1099.703798766257,597.7512169782323 C1111.1438012076633,606.2512169782323 1122.7337670279758,614.7012291852635 1134.3237938834445,623.1312218610448 C1145.9038109732883,631.571224302451 1156.5437645865695,639.9212609235448 1168.703798766257,647.7512169782323 C1180.8737816764133,655.581234068076 1191.0537743521945,665.1412316266698 1203.8537621451633,672.601253599326 C1216.6538109732883,680.061214536826 1225.4238305045383,688.601253599326 1238.8737816764133,696.581234068076 C1252.3137230826633,704.561214536826 1260.0737328482883,712.4212609235448 1275.8537621451633,719.601253599326 C1291.6337914420383,726.781185239951 1285.5338158561008,745.541195005576 1274.3737816764133,755.581234068076 C1263.2137474967258,765.621273130576 1257.8337426139133,777.361263364951 1247.8737816764133,788.081234068076 C1237.9138207389133,798.801204771201 1230.2137474967258,809.7512780133885 1220.8737816764133,821.081234068076 C1211.5337548209445,832.4011803571385 1203.3637719107883,841.341243833701 1194.3737816764133,853.581234068076 C1185.3837914420383,865.821224302451 1176.5037865592258,872.891292661826 1167.3737816764133,886.581234068076 C1158.2337670279758,900.2612877790135 1140.963808531882,895.631282896201 1128.5437645865695,886.9111901227635 C1116.1337914420383,878.1812096540135 1101.8037743521945,874.2112389508885 1089.5437645865695,865.9111901227635 C1077.2937645865695,857.601253599326 1064.6237816764133,852.051204771201 1052.5437645865695,843.9111901227635 C1040.463808531882,835.781185239951 1027.6538109732883,828.631282896201 1015.5437645865695,820.9111901227635 C1003.443789000632,813.1812096540135 991.6538109732883,805.571224302451 979.8737816764133,797.581234068076 C968.1037621451633,789.581234068076 956.8938012076633,781.4512291852635 945.3737816764133,773.081234068076 C933.8537621451633,764.7012291852635 921.7937645865695,756.551204771201 910.3737816764133,748.081234068076 C898.963808531882,739.611263364951 887.8137841178195,731.4312096540135 876.3737816764133,723.081234068076 C864.943789000632,714.7212487165135 853.5238060904758,705.841243833701 842.3938012076633,697.061214536826 C831.2637963248508,688.2812462751073 820.3437523795383,680.061214536826 809.3938012076633,671.061214536826 C798.443789000632,662.061214536826 787.433779235007,652.9012413922948 776.3737816764133,644.081234068076 C765.3137841178195,635.2612267438573 755.693789000632,625.1912194196385 744.8737816764133,616.581234068076 C734.0437645865695,607.9712487165135 723.0838036490695,597.6712609235448 712.8737816764133,588.581234068076 C702.6637902213351,579.5012169782323 691.5737938834445,570.301204771201 681.8737816764133,560.581234068076 C672.173769469382,550.861263364951 661.4937767936008,541.601253599326 651.8737816764133,531.581234068076 C642.2537865592258,521.561214536826 630.9537682486789,511.591243833701 621.8737816764133,501.581234068076 C612.7837853385226,491.571224302451 601.6437706900851,481.6912194196385 593.3737816764133,471.081234068076 C585.1137719107883,460.4712487165135 572.6137719107883,449.53124627510726 565.3737816764133,439.081234068076 C558.1337914420383,428.63122186104476 540.0137963248508,415.25121697823226 543.6237816764133,401.831234068076 C547.2337670279758,388.41125115791976 563.0037865592258,379.62121209541976 569.8737816764133,368.081234068076 C576.7337670279758,356.53124627510726 588.1437706900851,346.63122186104476 596.3737816764133,335.581234068076 C604.6137719107883,324.53124627510726 614.2537865592258,312.571224302451 622.923769469382,302.13122186104476 C631.6037926627414,291.7012291852635 640.3237938834445,278.9712487165135 649.3937706900851,269.601253599326 C658.4637780143039,260.2312584821385 666.9737877799289,238.95122918526351 682.6237816764133,242.83123406807601 C682.6237816764133,242.83123406807601 682.6237816764133,242.83123406807601 682.6237816764133,242.83123406807601 Z" fill="#8c23cc"/>
			</g>
			<g>
				<path d="M682.6237816764133,242.83123406807596 C666.9737877799289,238.95122918526346 658.4637780143039,260.23125848213846 649.3937706900851,269.60125359932596 C640.3237938834445,278.97124871651346 631.6037926627414,291.70122918526346 622.923769469382,302.1312218610447 C614.2537865592258,312.57122430245096 604.6137719107883,324.5312462751072 596.3737816764133,335.58123406807596 C588.1437706900851,346.6312218610447 576.7337670279758,356.5312462751072 569.8737816764133,368.08123406807596 C563.0037865592258,379.6212120954197 547.2337670279758,388.4112511579197 543.6237816764133,401.83123406807596 C540.0137963248508,415.2512169782322 558.1337914420383,428.6312218610447 565.3737816764133,439.08123406807596 C572.6137719107883,449.5312462751072 585.1137719107883,460.47124871651346 593.3737816764133,471.08123406807596 C601.6437706900851,481.69121941963846 612.7837853385226,491.57122430245096 621.8737816764133,501.58123406807596 C630.9537682486789,511.59124383370096 642.2537865592258,521.5612145368259 651.8737816764133,531.5812340680759 C661.4937767936008,541.6012535993259 672.173769469382,550.8612633649509 681.8737816764133,560.5812340680759 C691.5737938834445,570.3012047712009 702.6637902213351,579.5012169782322 712.8737816764133,588.5812340680759 C723.0838036490695,597.6712609235447 734.0437645865695,607.9712487165134 744.8737816764133,616.5812340680759 C755.693789000632,625.1912194196384 765.3137841178195,635.2612267438572 776.3737816764133,644.0812340680759 C787.433779235007,652.9012413922947 798.443789000632,662.0612145368259 809.3938012076633,671.0612145368259 C820.3437523795383,680.0612145368259 831.2637963248508,688.2812462751072 842.3938012076633,697.0612145368259 C853.5238060904758,705.8412438337009 864.943789000632,714.7212487165134 876.3737816764133,723.0812340680759 C887.8137841178195,731.4312096540134 898.963808531882,739.6112633649509 910.3737816764133,748.0812340680759 C921.7937645865695,756.5512047712009 933.8537621451633,764.7012291852634 945.3737816764133,773.0812340680759 C956.8938012076633,781.4512291852634 968.1037621451633,789.5812340680759 979.8737816764133,797.5812340680759 C991.6538109732883,805.5712243024509 1003.443789000632,813.1812096540134 1015.5437645865695,820.9111901227634 C1027.6538109732883,828.6312828962009 1040.463808531882,835.7811852399509 1052.5437645865695,843.9111901227634 C1064.6237816764133,852.0512047712009 1077.2937645865695,857.6012535993259 1089.5437645865695,865.9111901227634 C1101.8037743521945,874.2112389508884 1116.1337914420383,878.1812096540134 1128.5437645865695,886.9111901227634 C1140.963808531882,895.6312828962009 1158.2337670279758,900.2612877790134 1167.3737816764133,886.5812340680759 C1176.5037865592258,872.8912926618259 1185.3837914420383,865.8212243024509 1194.3737816764133,853.5812340680759 C1203.3637719107883,841.3412438337009 1211.5337548209445,832.4011803571384 1220.8737816764133,821.0812340680759 C1230.2137474967258,809.7512780133884 1237.9138207389133,798.8012047712009 1247.8737816764133,788.0812340680759 C1257.8337426139133,777.3612633649509 1263.2137474967258,765.6212731305759 1274.3737816764133,755.5812340680759 C1285.5338158561008,745.5411950055759 1291.6337914420383,726.7811852399509 1275.8537621451633,719.6012535993259 C1260.0737328482883,712.4212609235447 1252.3137230826633,704.5612145368259 1238.8737816764133,696.5812340680759 C1225.4238305045383,688.6012535993259 1216.6538109732883,680.0612145368259 1203.8537621451633,672.6012535993259 C1191.0537743521945,665.1412316266697 1180.8737816764133,655.5812340680759 1168.703798766257,647.7512169782322 C1156.5437645865695,639.9212609235447 1145.9038109732883,631.5712243024509 1134.3237938834445,623.1312218610447 C1122.7337670279758,614.7012291852634 1111.1438012076633,606.2512169782322 1099.703798766257,597.7512169782322 C1088.2637963248508,589.2512169782322 1077.3137841178195,580.9612389508884 1065.8737816764133,572.5812340680759 C1054.423769469382,564.2112389508884 1043.2738060904758,554.8712120954197 1031.8737816764133,546.5812340680759 C1020.4737572623508,538.3012047712009 1010.0637841178195,529.0112267438572 998.703798766257,520.7512169782322 C987.3437523795383,512.4912072126072 976.943789000632,503.33123406807596 965.8537621451633,494.60125359932596 C954.7637963248508,485.8712120954197 943.1137719107883,477.30120477120096 932.3737816764133,468.08123406807596 C921.6237816764133,458.8712120954197 910.5238060904758,450.86126336495096 899.8737816764133,441.58123406807596 C889.2237572623508,432.30120477120096 878.3837914420383,422.69121941963846 867.3737816764133,414.08123406807596 C856.3637719107883,405.47124871651346 846.7937645865695,395.23125848213846 835.8537621451633,386.60125359932596 C824.913759703757,377.97124871651346 814.193789000632,368.09124383370096 803.8737816764133,358.58123406807596 C793.5537743521945,349.08123406807596 783.2637963248508,339.7712365094822 772.8737816764133,330.58123406807596 C762.4837670279758,321.4012413922947 752.1037621451633,310.6712609235447 741.8737816764133,301.58123406807596 C731.6438012076633,292.5012169782322 722.9737572623508,279.9212609235447 712.3737816764133,272.08123406807596 C701.7837853385226,264.23125848213846 695.0837731314914,245.9212609235447 682.6237816764133,242.83123406807596M1251.6237816764133,738.8312340680759 C1217.7337670279758,780.9312096540134 1181.7738060904758,821.9111901227634 1149.6237816764133,864.8312340680759 C1040.3338036490695,809.9912682477634 936.3338036490695,734.1511803571384 839.923769469382,658.5312462751072 C743.5238060904758,582.9012413922947 655.1037926627414,500.7512169782322 575.6237816764133,406.83123406807596 C582.8737816764133,396.09124383370096 592.1337914420383,387.59124383370096 599.8737816764133,377.08123406807596 C607.6037926627414,366.57122430245096 616.5037865592258,357.2512169782322 624.3737816764133,346.58123406807596 C632.2437767936008,335.9212609235447 640.9037804557101,327.1512413922947 648.8737816764133,316.08123406807596 C656.8337731314914,305.0112267438572 665.1337914420383,297.46123895088846 673.3737816764133,285.58123406807596 C681.6137719107883,273.70122918526346 692.173769469382,291.4212609235447 700.7237877799289,299.73125848213846 C709.2637963248508,308.0412560407322 718.5737938834445,318.71123895088846 728.3737816764133,327.08123406807596 C738.173769469382,335.44121941963846 746.673769469382,345.4012413922947 756.3737816764133,354.08123406807596 C766.0737938834445,362.7612267438572 775.9038109732883,371.68120965401346 785.3737816764133,380.08123406807596 C794.8537621451633,388.48125848213846 804.5137963248508,397.6212120954197 814.3737816764133,406.08123406807596 C824.2337670279758,414.5412560407322 833.9038109732883,423.2512169782322 843.8737816764133,431.58123406807596 C853.8338036490695,439.9212609235447 863.433779235007,448.6412316266697 873.3737816764133,457.08123406807596 C883.3237938834445,465.5212365094822 893.953798766257,473.0012169782322 903.8537621451633,481.60125359932596 C913.7537865592258,490.20122918526346 924.1237816764133,497.97124871651346 934.3237938834445,506.1312218610447 C944.5137963248508,514.3012047712009 954.3137841178195,522.9112511579197 964.703798766257,530.7512169782322 C975.0937523795383,538.5912438337009 984.943789000632,547.2612267438572 995.3737816764133,555.0812340680759 C1005.8037743521945,562.9012413922947 1016.3037743521945,570.8312340680759 1026.703798766257,578.7512169782322 C1037.1037621451633,586.6612511579197 1047.463808531882,594.6612511579197 1057.8737816764133,602.5812340680759 C1068.2837548209445,610.5112267438572 1079.0137963248508,618.0012169782322 1089.3737816764133,626.0812340680759 C1099.7437767936008,634.1612511579197 1110.693789000632,641.4012413922947 1121.3237938834445,649.1312218610447 C1131.943789000632,656.8712120954197 1142.433779235007,664.8012047712009 1153.3237938834445,672.1312218610447 C1164.213808531882,679.4712487165134 1174.3637719107883,687.8712120954197 1185.3737816764133,695.0812340680759 C1196.3837914420383,702.2912560407322 1207.3338036490695,709.8112145368259 1218.3237938834445,717.1312218610447 C1229.3038353873508,724.4612389508884 1240.8537621451633,731.1312828962009 1251.6237816764133,738.8312340680759 C1251.6237816764133,738.8312340680759 1251.6237816764133,738.8312340680759 1251.6237816764133,738.8312340680759 Z" fill="#000002"/>
			</g>
		</g>
		<g transform="matrix(1,0,0,1,433.062467103,-25.611263365)">
			<g>
				<path d="M513.6237816764133,521.831234068076 C504.3737816764133,528.2812462751073 498.1137719107883,539.0112267438573 490.3737816764133,547.581234068076 C482.64377069008515,556.1612511579198 476.2537865592258,565.7112389508885 468.39377069008515,574.601253599326 C460.53378533852265,583.4912072126073 454.8337731314914,592.4612389508885 446.9237847281711,601.1312218610448 C439.0137810660617,609.811214536826 433.3437828971164,619.2912560407323 424.9237847281711,628.1312218610448 C416.5037865592258,636.9712487165135 413.2537865592258,646.8712120954198 403.3737816764133,655.581234068076 C393.5037865592258,664.301204771201 398.98378228676484,675.601253599326 405.85377740395234,685.601253599326 C412.7237877799289,695.601253599326 417.8437828971164,706.091243833701 424.8737816764133,715.581234068076 C431.8937859488742,725.081234068076 438.3837761832492,733.6711998883885 445.70378350746796,742.7512780133885 C453.02377557289765,751.821224302451 460.3737816764133,760.5112877790135 468.3737816764133,769.081234068076 C476.3837914420383,777.641292661826 483.7337670279758,786.611263364951 491.8737816764133,794.581234068076 C500.0137963248508,802.551204771201 507.7337670279758,810.781185239951 515.8737816764133,818.581234068076 C524.0137963248508,826.381282896201 533.0137963248508,834.0112877790135 541.3737816764133,842.081234068076 C549.7437767936008,850.1511803571385 557.8937706900851,857.2312584821385 566.5437951041476,864.9111901227635 C575.183779235007,872.591243833701 584.5037865592258,879.621273130576 593.3737816764133,887.081234068076 C602.2537865592258,894.541195005576 611.3437828971164,901.861263364951 620.3737816764133,909.081234068076 C629.4037804557101,916.301204771201 638.1337914420383,923.121273130576 647.3737816764133,930.081234068076 C656.6237816764133,937.031185239951 665.8937706900851,944.4011803571385 675.3737816764133,951.081234068076 C684.8537926627414,957.7612877790135 693.7837853385226,965.531185239951 703.3937706900851,972.061214536826 C713.0037865592258,978.591243833701 722.183779235007,985.091243833701 731.8737816764133,991.581234068076 C741.5737938834445,998.061214536826 751.4737572623508,1004.881282896201 761.3938012076633,1011.061214536826 C771.3237938834445,1017.2412682477635 780.6237816764133,1023.841243833701 790.8837914420383,1029.571224302451 C801.1438012076633,1035.301204771201 811.5137963248508,1041.6711998883884 821.933779235007,1047.521175474326 C832.3537621451633,1053.381282896201 843.683779235007,1058.351253599326 854.3938012076633,1064.061214536826 C865.1037621451633,1069.7612877790134 875.7437767936008,1074.7112389508884 886.943789000632,1079.5112877790134 C898.1438012076633,1084.311214536826 910.8037743521945,1089.2512780133884 922.4038109732883,1093.051204771201 C933.9937767936008,1096.861263364951 948.2337670279758,1104.271175474326 955.8737816764133,1094.081234068076 C963.5137963248508,1083.881282896201 970.463808531882,1076.621273130576 977.8737816764133,1067.081234068076 C985.2738060904758,1057.541195005576 992.943789000632,1049.5112877790134 999.8737816764133,1040.081234068076 C1006.7937645865695,1030.6511803571384 1014.8637719107883,1023.2412682477635 1021.703798766257,1013.9111901227635 C1028.5437645865695,1004.581234068076 1036.433779235007,995.801204771201 1043.3737816764133,986.581234068076 C1050.3137841178195,977.361263364951 1057.8938012076633,969.1511803571385 1064.6237816764133,959.831234068076 C961.5437645865695,905.1611901227635 861.923769469382,832.311214536826 769.8737816764133,759.581234068076 C677.8237938834445,686.861263364951 591.5637841178195,609.9912072126073 513.6237816764133,521.831234068076 C513.6237816764133,521.831234068076 513.6237816764133,521.831234068076 513.6237816764133,521.831234068076 Z" fill="#eec10f"/>
			</g>
		</g>
		<g transform="matrix(1,0,0,1,433.062467103,-25.611263365)">
			<g>
				<path d="M311.6237816764133,779.831234068076 C289.2937798453586,808.891292661826 272.70378350746796,834.101253599326 256.9337830497043,868.141292661826 C241.15378045571015,902.1711998883885 231.66378259194062,942.2012291852635 227.61378144753144,980.821224302451 C223.5637822104709,1019.4412194196385 227.8837819052951,1069.831234068076 238.8437828971164,1105.611263364951 C249.81378030312226,1141.391292661826 263.9137825919406,1171.9812584821384 284.70378350746796,1201.7512780133884 C305.4937844229953,1231.521175474326 324.683779235007,1252.2412682477634 353.3737816764133,1275.081234068076 C382.07377862465546,1297.9111901227634 409.7937798453586,1312.6812096540134 444.60377740395234,1326.861263364951 C479.40378045571015,1341.031185239951 525.1437706900851,1348.291195005576 564.6237816764133,1348.831234068076 C604.1037926627414,1349.371273130576 651.1637902213351,1341.391292661826 685.933779235007,1328.141292661826 C720.693789000632,1314.881282896201 749.6337914420383,1299.581234068076 778.8737816764133,1279.081234068076 C808.1137719107883,1258.591243833701 830.2337670279758,1238.4912682477634 853.6237816764133,1211.831234068076 C743.193789000632,1175.381282896201 639.9537682486789,1101.7412682477634 548.8737816764133,1029.581234068076 C457.78378533852265,957.4312096540135 365.8137841178195,882.1611901227635 311.6237816764133,779.831234068076 C311.6237816764133,779.831234068076 311.6237816764133,779.831234068076 311.6237816764133,779.831234068076 Z" fill="#eec10f"/>
			</g>
		</g>
		<g transform="matrix(1,0,0,1,433.062467103,-25.611263365)">
			<path d="M791.4116205578356,577.6016496510297 Q782.0017670676472,570.1566309602482 776.6486735902517,560.428082426299 Q771.2955801128564,550.6995338923499 770.0934335892417,539.9413096466823 Q768.891287065627,529.1830854010148 771.8221658297056,518.6534452445563 Q774.7605953226794,508.1142616261404 781.9186863154388,499.06705969034056 Q789.0843280370935,490.01031429258313 798.7027606970299,484.678720675519 Q808.3287440858617,479.3375835964973 819.0750119331556,478.03287192776514 Q829.8288305093448,476.71861679707536 840.5731444179956,479.6331334933019 Q851.325009055542,482.53810672757083 860.7348625457304,489.98312541835224 Q871.4712572480245,498.47769542558257 876.2847790633152,507.8879610195738 Q881.115395069459,517.2962338805028 881.248050014529,527.7979499111431 Q860.960377600068,528.6295644684316 860.960377600068,528.6295644684316 Q860.5418777940432,522.2155693521127 857.3815971293651,516.2857954384543 Q854.2384106555398,510.35402879173387 848.3214642418311,505.672576876638 Q840.2381519637484,499.2771095023055 831.2058995756911,498.41545530666366 Q822.1736471876338,497.5538011110218 813.8507948382749,501.36557134041226 Q805.5374859508735,505.18489229869806 799.4213955456676,512.9150964843498 Q793.3128558693571,520.635757208044 791.5081880370353,529.6046752729352 Q789.713063666671,538.5811440667217 792.6292256495225,547.1730024480153 Q795.5453876323738,555.7648608293089 803.6286999104566,562.1603282036414 Q813.6493349659311,570.0885935437229 823.5631381853848,570.1890754354666 Q833.4940355956912,570.287564594148 842.7747476776882,561.5387053362102 Q814.8335920826198,539.8197722575716 814.8335920826198,539.8197722575716 C814.8335920826198,539.8197722575716 826.8619032128579,524.6170373591232 826.8619032128579,524.6170373591232 C826.8619032128579,524.6170373591232 870.9049801471576,559.4636512110058 870.9049801471576,559.4636512110058 Q869.6278629212013,561.5877494777181 867.6572309632306,564.4510999846436 Q865.6941497341552,567.3049070296115 864.0707430216623,569.3567513504944 Q854.8059986671097,581.0665791724632 842.699256587837,586.3070614186692 Q830.6096086994172,591.5455509318128 817.3427016374906,589.5835089134633 Q804.0853380375214,587.6290176240091 791.4116205578356,577.6016496510297 Q791.4116205578356,577.6016496510297 791.4116205578356,577.6016496510297 ZM842.3722622755075,615.3765199416549 C842.3722622755075,615.3765199416549 909.2113144568433,530.8977946930262 909.2113144568433,530.8977946930262 C909.2113144568433,530.8977946930262 922.0090969419779,541.0233221416447 922.0090969419779,541.0233221416447 C922.0090969419779,541.0233221416447 924.4932222302141,622.4541338230894 924.4932222302141,622.4541338230894 Q924.6073494332975,625.2910373816717 924.6018173004106,628.1418900716899 Q924.6133793583767,630.9907500286458 924.5052820803724,633.8535591170378 Q926.2417331588816,630.9135489948044 929.0322495070247,627.1316132035337 Q931.8323093171256,623.3572281411583 934.7921950440893,619.6161910537812 Q968.1135616591182,577.5008934349155 968.1135616591182,577.5008934349155 C968.1135616591182,577.5008934349155 983.5548831065064,589.7179727875366 983.5548831065064,589.7179727875366 C983.5548831065064,589.7179727875366 916.7158309251706,674.1966980361653 916.7158309251706,674.1966980361653 C916.7158309251706,674.1966980361653 905.731306211979,665.5058090776567 905.731306211979,665.5058090776567 C905.731306211979,665.5058090776567 903.2148511284465,580.8993550799886 903.2148511284465,580.8993550799886 Q903.100723925363,578.0624515214063 903.089161867397,575.2135915644503 Q903.0946940002839,572.3627388744321 903.1952405493928,569.5094732479979 Q901.4587894708836,572.4494833702312 898.6587296607829,576.2238684326065 Q895.875764041535,579.9962607619196 892.9158783145712,583.7372978492967 Q858.0617137337932,627.7899182455542 858.0617137337932,627.7899182455542 C858.0617137337932,627.7899182455542 842.3722622755075,615.3765199416549 842.3722622755075,615.3765199416549 ZM968.5851716593202,717.7802827018038 Q959.1753181691317,710.3352640110224 953.8222246917363,700.6067154770733 Q948.469131214341,690.8781669431241 947.2669846907263,680.1199426974565 Q946.0648381671116,669.3617184517889 948.9957169311901,658.8320782953306 Q951.934146424164,648.2928946769146 959.0922374169234,639.2456927411147 Q966.2578791385781,630.1889473433573 975.7522467930658,624.7591942506541 Q985.2541651764489,619.3198976959933 995.876368018294,617.917026551622 Q1006.5156650509921,616.5121626741884 1017.3172397313886,619.4719837437868 Q1028.135908602638,622.429812080323 1037.908413647215,630.1617584691264 Q1048.2821567951205,638.3694007783347 1053.1246209159312,647.5077318483878 Q1057.9746357656372,656.6365194564835 1058.2975361105648,667.878423486278 Q1038.1339287015526,668.8081975192058 1038.1339287015526,668.8081975192058 Q1036.842191610896,654.8290265839428 1025.4950153433158,645.8512099274121 Q1017.4117030652329,639.4557425530797 1008.3794506771757,638.5940883574378 Q999.3471982891185,637.7324341617959 991.0243459397595,641.5442043911864 Q982.711037052358,645.3635253494722 976.5949466471523,653.093729535124 Q970.4864069708417,660.8143902588181 968.7270435118918,669.7260475519638 Q966.9772235148995,678.6452555740048 970.0035013717636,687.215614094967 Q973.0297792286278,695.7859726159294 981.3612215176081,702.37775894154 Q987.5167544802566,707.2479790790188 993.8450879378438,708.9186441035266 Q1000.1734213954309,710.5893091280345 1007.1612719077939,709.4455062132325 Q1011.1589853193484,729.6932981035018 1011.1589853193484,729.6932981035018 Q1001.7467011293487,731.6655106907319 990.7154595226758,729.113645548894 Q979.6842179160029,726.5617804070562 968.5851716593202,717.7802827018038 Q968.5851716593202,717.7802827018038 968.5851716593202,717.7802827018038 Z" fill="#000000"/>
		</g>
	</g>
</g></g></svg>